<svg xmlns="http://www.w3.org/2000/svg" width="58.849" height="58.849" viewBox="0 0 58.849 58.849"><circle cx="29.424" cy="29.424" r="29.424" fill="#fff" transform="translate(0 0)"/><g><path fill="#f26798" d="M39.136,20.472A18.687,18.687,0,1,0,57.847,39.159,18.72,18.72,0,0,0,39.136,20.472Zm12.312,8.82a15.691,15.691,0,0,1,3.491,9.626,39.045,39.045,0,0,0-7.312-.707,29.554,29.554,0,0,0-3.6.209c-.1-.251-.207-.5-.315-.754-.317-.746-.659-1.487-1.013-2.217a21.53,21.53,0,0,0,8.753-6.158ZM39.136,23.4a15.752,15.752,0,0,1,10.415,3.921c-.441.6-2.83,3.588-8.164,5.6A85.444,85.444,0,0,0,35.572,23.8a15.779,15.779,0,0,1,3.564-.406Zm-6.79,1.532a102.1,102.1,0,0,1,5.784,9,59.83,59.83,0,0,1-14.288,1.9h-.155a15.85,15.85,0,0,1,8.659-10.907ZM23.329,39.184q0-.2.006-.39h.415a59.173,59.173,0,0,0,15.788-2.244c.426.833.831,1.678,1.208,2.523-.177.051-.352.1-.526.158-7.9,2.552-12.243,9.307-12.912,10.411a15.708,15.708,0,0,1-3.981-10.46ZM39.136,54.969a15.742,15.742,0,0,1-9.641-3.287c.452-.885,3.729-6.787,12.388-9.8l.017-.006a65.786,65.786,0,0,1,3.343,11.866,15.72,15.72,0,0,1-6.106,1.226Zm8.954-2.783A69.058,69.058,0,0,0,45.06,41.1a20.728,20.728,0,0,1,3.181-.239,23.489,23.489,0,0,1,6.489.907,15.815,15.815,0,0,1-6.64,10.417Z" transform="translate(10.714 10.738) translate(-20.426 -20.472)"/></g></svg>