<svg xmlns="http://www.w3.org/2000/svg" width="59.85" height="58.411" viewBox="0 0 59.85 58.411"><g transform="translate(0.5 -4.865)"><path d="M54.9,20.02A29.3,29.3,0,0,0,44.194,9.311a28.78,28.78,0,0,0-14.77-3.946,28.784,28.784,0,0,0-14.77,3.946A29.294,29.294,0,0,0,3.946,20.02,28.783,28.783,0,0,0,0,34.789a28.6,28.6,0,0,0,5.613,17.3,28.819,28.819,0,0,0,14.5,10.632,1.715,1.715,0,0,0,1.532-.268,1.5,1.5,0,0,0,.5-1.149q0-.115-.019-2.069t-.019-3.409l-.881.152a11.241,11.241,0,0,1-2.126.134,16.2,16.2,0,0,1-2.663-.268,5.95,5.95,0,0,1-2.567-1.149,4.861,4.861,0,0,1-1.685-2.356l-.383-.882A9.574,9.574,0,0,0,10.593,49.5a4.623,4.623,0,0,0-1.667-1.456l-.268-.192a2.813,2.813,0,0,1-.5-.46,2.1,2.1,0,0,1-.345-.536q-.115-.269.191-.441a2.485,2.485,0,0,1,1.111-.171l.766.114a5.593,5.593,0,0,1,1.9.919,6.184,6.184,0,0,1,1.858,1.992,6.754,6.754,0,0,0,2.126,2.395,4.511,4.511,0,0,0,2.509.823,10.9,10.9,0,0,0,2.184-.191,7.62,7.62,0,0,0,1.724-.575,6.208,6.208,0,0,1,1.877-3.947,26.234,26.234,0,0,1-3.927-.69,15.636,15.636,0,0,1-3.6-1.495,10.314,10.314,0,0,1-3.084-2.567A12.336,12.336,0,0,1,11.436,39a19.131,19.131,0,0,1-.785-5.747,11.175,11.175,0,0,1,3.027-7.893,10.3,10.3,0,0,1,.268-7.815,5.369,5.369,0,0,1,3.295.517,23.036,23.036,0,0,1,3.2,1.475q1.016.612,1.628,1.034a27.67,27.67,0,0,1,14.713,0l1.456-.919a20.619,20.619,0,0,1,3.524-1.686,5.021,5.021,0,0,1,3.1-.421,10.2,10.2,0,0,1,.306,7.815A11.177,11.177,0,0,1,48.2,33.256a19.344,19.344,0,0,1-.785,5.766,11.857,11.857,0,0,1-2.03,4.023,10.711,10.711,0,0,1-3.1,2.548,15.666,15.666,0,0,1-3.6,1.494,26.208,26.208,0,0,1-3.927.691q1.992,1.723,1.992,5.44V61.3a1.526,1.526,0,0,0,.479,1.149,1.664,1.664,0,0,0,1.513.268,28.814,28.814,0,0,0,14.5-10.632,28.6,28.6,0,0,0,5.613-17.3A28.806,28.806,0,0,0,54.9,20.02Z" fill="#fff" stroke="#000" stroke-width="1"/></g></svg>