<svg xmlns="http://www.w3.org/2000/svg" width="58.849" height="58.849" viewBox="0 0 58.849 58.849"><circle cx="29.424" cy="29.424" r="29.424" fill="#fff" transform="translate(0 0)"/><g><path fill="#007ab9" d="M59.876,43.188V55.319H52.842V44c0-2.842-1.015-4.783-3.562-4.783a3.847,3.847,0,0,0-3.608,2.572A4.814,4.814,0,0,0,45.44,43.5V55.319H38.406s.094-19.169,0-21.153H45.44v3c-.014.024-.034.047-.047.069h.047v-.069a6.983,6.983,0,0,1,6.339-3.494c4.627,0,8.1,3.023,8.1,9.519ZM31.048,23.969a3.665,3.665,0,1,0-.092,7.31H31a3.667,3.667,0,1,0,.047-7.31Zm-3.562,31.35h7.031V34.166H27.486Z" transform="translate(14.198 12.573) translate(-27.068 -23.969)"/></g></svg>