<svg xmlns="http://www.w3.org/2000/svg" width="58.849" height="58.849" viewBox="0 0 58.849 58.849"><circle cx="29.424" cy="29.424" r="29.424" transform="translate(0 0)" fill="#fff"/><g transform="translate(13.166 17.848)"><path d="M59.384,37.326a14.033,14.033,0,0,1-4.04,1.106,7.052,7.052,0,0,0,3.093-3.89,14.08,14.08,0,0,1-4.466,1.706,7.039,7.039,0,0,0-11.985,6.416,19.965,19.965,0,0,1-14.5-7.35,7.041,7.041,0,0,0,2.176,9.39,6.984,6.984,0,0,1-3.185-.881c0,.03,0,.06,0,.089a7.037,7.037,0,0,0,5.642,6.9,7.061,7.061,0,0,1-3.176.122,7.041,7.041,0,0,0,6.57,4.884A14.2,14.2,0,0,1,25.1,58.728a19.894,19.894,0,0,0,10.78,3.16c12.937,0,20.011-10.717,20.011-20.012,0-.3-.007-.608-.02-.91a14.262,14.262,0,0,0,3.51-3.64Z" transform="translate(-25.103 -34.028)" fill="#55acee"/></g></svg>